<svg xmlns="http://www.w3.org/2000/svg" xmlns:xlink="http://www.w3.org/1999/xlink" viewBox="0 0 558.727 264.573"><defs><style>.cls-1,.cls-3{fill:none;}.cls-2{clip-path:url(#clip-path);}.cls-3{stroke:#fff;stroke-miterlimit:10;stroke-width:7px;}.cls-4{clip-path:url(#clip-path-2);}.cls-5{fill:#fff;}</style><clipPath id="clip-path"><rect class="cls-1" width="283.456" height="200.165"/></clipPath><clipPath id="clip-path-2"><rect class="cls-1" x="275.271" width="283.456" height="200.165"/></clipPath></defs><g id="Layer_2" data-name="Layer 2"><g id="Layer_1-2" data-name="Layer 1"><g id="_Mirror_Repeat_" data-name="&lt;Mirror Repeat&gt;"><g class="cls-2"><path class="cls-3" d="M278.719,100.082s-88.073,96.583-164.073,96.583S3.5,153.424,3.5,100.082,38.647,3.5,114.646,3.5,278.719,100.082,278.719,100.082Z"/><path class="cls-3" d="M278.719,100.082S226.96,196.665,151.21,196.665c-59.063,0-86.377-43.241-86.377-96.583S92.147,3.5,151.21,3.5C226.96,3.5,278.719,100.082,278.719,100.082Z"/><path class="cls-3" d="M278.719,100.082s-26.978,96.583-91.4,96.583c-42.337,0-61.916-43.241-61.916-96.583S144.983,3.5,187.32,3.5C250.686,3.5,278.719,100.082,278.719,100.082Z"/><path class="cls-3" d="M278.719,100.082s-4.834,96.583-56.451,96.583c-26.148,0-38.241-43.241-38.241-96.583S196.12,3.5,222.268,3.5C271.776,3.5,278.719,100.082,278.719,100.082Z"/><path class="cls-3" d="M278.719,100.082s4,96.583-16.438,96.583c-9.468,0-17.846-43.241-17.846-96.583S252.813,3.5,262.281,3.5C282.719,3.5,278.719,100.082,278.719,100.082Z"/></g></g><g id="_Mirror_Repeat_2" data-name="&lt;Mirror Repeat&gt;"><g class="cls-4"><path class="cls-3" d="M280.008,100.082s88.073,96.583,164.073,96.583,111.146-43.241,111.146-96.583S520.081,3.5,444.081,3.5,280.008,100.082,280.008,100.082Z"/><path class="cls-3" d="M280.008,100.082s51.76,96.583,127.509,96.583c59.064,0,86.378-43.241,86.378-96.583S466.581,3.5,407.517,3.5C331.768,3.5,280.008,100.082,280.008,100.082Z"/><path class="cls-3" d="M280.008,100.082s26.979,96.583,91.4,96.583c42.337,0,61.916-43.241,61.916-96.583S413.745,3.5,371.408,3.5C308.041,3.5,280.008,100.082,280.008,100.082Z"/><path class="cls-3" d="M280.008,100.082s4.834,96.583,56.451,96.583c26.149,0,38.241-43.241,38.241-96.583S362.608,3.5,336.459,3.5C286.951,3.5,280.008,100.082,280.008,100.082Z"/><path class="cls-3" d="M280.008,100.082s-4,96.583,16.439,96.583c9.467,0,17.845-43.241,17.845-96.583S305.914,3.5,296.447,3.5C276.008,3.5,280.008,100.082,280.008,100.082Z"/></g></g><path class="cls-5" d="M17.85,263.922V230.491H25v33.431Z"/><path class="cls-5" d="M65.35,264.433l-18.34-17.6-2.183-1.9v18.991H37.816V229.98H38.1l18.294,17.6,2.136,1.9V230.491h7.058v33.942Z"/><path class="cls-5" d="M85.55,236.481v7.986H96.693v5.9H85.55v13.558H78.4V230.491H98.783v5.99Z"/><path class="cls-5" d="M109.231,263.922V230.491h7.151v33.431Z"/><path class="cls-5" d="M156.732,264.433l-18.34-17.6-2.183-1.9v18.991H129.2V229.98h.278l18.294,17.6,2.137,1.9V230.491h7.058v33.942Z"/><path class="cls-5" d="M169.781,263.922V230.491h7.151v33.431Z"/><path class="cls-5" d="M203.073,236.481v27.441h-7.151V236.481h-9.333v-5.99h25.863v5.99Z"/><path class="cls-5" d="M222.11,263.922V230.491h21.5v5.99H229.261V244.1h12.165v5.758H229.261v8.079h15.044v5.99Z"/><path class="cls-5" d="M282.1,236.481v27.441h-7.151V236.481h-9.333v-5.99h25.863v5.99Z"/><path class="cls-5" d="M301.141,263.922V230.491h7.15v33.431Z"/><path class="cls-5" d="M329.7,246.65l-1.764-1.532v18.8h-6.826V229.98h.139l15.927,16.065L353.1,229.98h.141v33.942h-6.826v-18.8l-1.765,1.532c-2.461,2.692-4.968,5.386-7.475,8.032C334.665,252.036,332.2,249.342,329.7,246.65Z"/><path class="cls-5" d="M366.055,263.922V230.491h21.5v5.99H373.205V244.1H385.37v5.758H373.205v8.079h15.043v5.99Z"/><path class="cls-5" d="M398.93,263.922V230.491h7.15v27.441h12.862v5.99Z"/><path class="cls-5" d="M428.973,263.922V230.491h7.15v33.431Z"/><path class="cls-5" d="M476.473,264.433l-18.34-17.6-2.183-1.9v18.991h-7.01V229.98h.277l18.3,17.6,2.137,1.9V230.491h7.056v33.942Z"/><path class="cls-5" d="M489.522,263.922V230.491h21.5v5.99H496.672V244.1h12.166v5.758H496.672v8.079h15.045v5.99Z"/><path class="cls-5" d="M520.866,262.668V255.8a21.859,21.859,0,0,0,8.4,2.415,12.233,12.233,0,0,0,2.971-.185c2.554-.372,4.039-1.347,4.039-2.972,0-2.229-2-3.389-6.592-5.061-5.852-2.136-9.287-4.6-9.287-10.4,0-5.943,4.922-9.75,12.119-9.75a22.985,22.985,0,0,1,8.728,1.671v6.594a17.108,17.108,0,0,0-8.171-2.043c-3.436,0-5.664,1.347-5.664,3.482,0,1.951,1.81,3.3,6.361,5.015,5.849,2.275,9.471,4.736,9.471,10.355,0,6.036-4.549,9.658-12.444,9.658A26.055,26.055,0,0,1,520.866,262.668Z"/></g></g></svg>